<svg xmlns="http://www.w3.org/2000/svg" viewBox="0 0 48 48" role="img" aria-label="WhatsApp">
<circle cx="24" cy="24" r="23" fill="#25D366" />
<path d="M11.2 35.8l2.3-7.3a14 14 0 1 1 5.5 5.4z" fill="none" stroke="#fff" stroke-width="3.4" stroke-linecap="round" stroke-linejoin="round"/>
<path d="M18.7 16.8c-.45-.95-1.08-.98-1.58-.98-.46 0-1 .05-1.56.67-.56.6-2.06 1.99-2.06 4.84s2.12 5.6 2.42 5.99 4.13 6.88 9.99 8.12c4.79 1.02 5.86-.58 6.92-2.24.7-1.12.7-2.08.5-2.29-.2-.24-.79-.4-1.69-.86-.9-.45-2.08-1.03-2.4-1.15-.31-.11-.53-.17-.77.18-.24.35-.9 1.16-1.1 1.4-.2.23-.4.27-.75.09s-1.49-.56-2.84-1.74c-1.06-.94-1.78-2.1-1.98-2.45-.2-.35-.02-.54.15-.73.16-.15.35-.41.53-.61.18-.21.24-.36.36-.59.12-.24.06-.44-.03-.62z" fill="#fff" transform="translate(7.7 3.0) scale(.71)" />
</svg>